#!OML:ASF F:\VICON\USERDATA\INSTALL\rory3\rory3.ASF
:FULLY-SPECIFIED
:DEGREES
197
root -0.883969 17.858 3.42959 5.15869 -51.4752 -6.53671
lowerback 9.65846 2.75595 4.47842
upperback 0.994689 4.1666 1.21439
thorax -4.14284 1.98344 -1.78273
lowerneck -20.5434 -4.42826 -9.81904
upperneck 26.0739 -5.50706 7.97909
head 12.5861 -2.43679 3.77701
rclavicle -3.38555e-014 1.5704e-014
rhumerus -30.6408 -9.15517 -79.0296
rradius 36.9519
rwrist 6.48308
rhand -12.2179 10.1825
rfingers 7.12502
rthumb 13.847 -19.3366
lclavicle -3.38555e-014 1.5704e-014
lhumerus -37.5979 8.84751 79.4195
lradius 35.2429
lwrist -8.40673
lhand -13.8732 25.8043
lfingers 7.12502
lthumb 12.2513 55.4255
rfemur 4.19484 1.49421 29.3208
rtibia 21.2186
rfoot -18.9779 3.12177
rtoes 10.1703
lfemur -18.3802 -3.69014 -13.6883
ltibia 1.55436
lfoot -5.34932 6.30446
ltoes -12.49
198
root -0.977975 17.8484 3.53297 5.24637 -51.3982 -6.43675
lowerback 9.51472 2.76052 4.48031
upperback 0.903206 4.16703 1.14226
thorax -4.15276 1.98264 -1.85328
lowerneck -20.6268 -4.43707 -9.71579
upperneck 26.2324 -5.54127 7.91822
head 12.6649 -2.44929 3.73336
rclavicle 7.49045e-014 -1.12313e-014
rhumerus -30.5975 -9.34411 -78.9846
rradius 36.8463
rwrist 6.63231
rhand -12.2056 10.387
rfingers 7.12502
rthumb 13.8589 -19.1313
lclavicle 7.49045e-014 -1.12313e-014
lhumerus -37.6997 8.83099 79.3574
lradius 35.2195
lwrist -8.46735
lhand -13.8195 25.6057
lfingers 7.12502
lthumb 12.3031 55.2237
rfemur 4.61133 1.44083 29.2379
rtibia 21.0506
rfoot -19.018 2.87356
rtoes 9.76244
lfemur -17.9457 -3.57197 -13.7154
ltibia 3.49861e-014
lfoot -4.6446 6.05062
ltoes -13.1635
199
root -1.07115 17.8391 3.63983 5.46211 -51.2599 -6.53119
lowerback 9.37039 2.73137 4.64793
upperback 0.811382 4.14111 1.11336
thorax -4.15589 1.96602 -1.96783
lowerneck -20.4942 -4.46588 -9.79338
upperneck 26.1784 -5.60217 8.03341
head 12.6295 -2.47203 3.78035
rclavicle 3.26255e-014 -2.87244e-014
rhumerus -30.5189 -9.6794 -78.8905
rradius 36.647
rwrist 6.87975
rhand -12.149 10.5386
rfingers 7.12502
rthumb 13.9134 -18.9759
lclavicle 3.26255e-014 -2.87244e-014
lhumerus -37.7445 9.01501 79.2382
lradius 35.0673
lwrist -8.67971
lhand -13.8967 25.6492
lfingers 7.12502
lthumb 12.2287 55.2717
rfemur 5.06499 1.42799 29.3008
rtibia 20.852
rfoot -18.9647 2.59494
rtoes 9.13546
lfemur -18.1533 -3.52466 -13.6722
ltibia 6.99722e-014
lfoot -4.44418 5.81526
ltoes -12.4387
200
root -1.16253 17.8266 3.74701 5.76698 -51.0795 -6.78822
lowerback 9.32827 2.66313 4.87877
upperback 0.703277 4.07862 1.14943
thorax -4.23628 1.92767 -2.05246
lowerneck -20.4509 -4.36141 -9.60585
upperneck 26.1967 -5.45944 7.83083
head 12.5988 -2.41734 3.69446
rclavicle -1.71452e-015 1.63997e-014
rhumerus -30.5249 -9.65691 -78.852
rradius 36.5553
rwrist 6.9864
rhand -12.2944 10.392
rfingers 7.12502
rthumb 13.7732 -19.1321
lclavicle -1.71452e-015 1.63997e-014
lhumerus -37.9073 9.32969 79.0961
lradius 34.9562
lwrist -8.97488
lhand -13.8327 25.7349
lfingers 7.12502
lthumb 12.2904 55.3537
rfemur 5.56435 1.51326 29.4959
rtibia 20.6387
rfoot -18.9059 2.35095
rtoes 9.07664
lfemur -18.2395 -3.5152 -13.5317
ltibia -2.22639e-014
lfoot -3.98262 5.5507
ltoes -11.8611
201
root -1.25701 17.813 3.84941 5.9568 -51.0067 -6.98324
lowerback 9.44382 2.63959 4.9089
upperback 0.559222 4.06815 1.2241
thorax -4.45604 1.91429 -2.00205
lowerneck -20.374 -4.35733 -9.5646
upperneck 26.2517 -5.44016 7.69984
head 12.5974 -2.42426 3.64115
rclavicle 1.1568e-013 -6.4605e-015
rhumerus -30.6525 -9.58147 -78.7719
rradius 36.5361
rwrist 7.01684
rhand -12.2372 10.2009
rfingers 7.12502
rthumb 13.8284 -19.3194
lclavicle 1.1568e-013 -6.4605e-015
lhumerus -38.19 9.64797 78.9721
lradius 34.859
lwrist -9.33897
lhand -13.4479 25.6163
lfingers 7.12502
lthumb 12.6614 55.2125
rfemur 6.13278 1.66104 29.6683
rtibia 20.4308
rfoot -18.833 1.95622
rtoes 8.61706
lfemur -18.173 -3.41512 -13.4583
ltibia 5.40694e-014
lfoot -3.40078 5.25822
ltoes -13.4884
202
root -1.35439 17.801 3.9498 6.22361 -51.0038 -7.24945
lowerback 9.49446 2.63923 4.91749
upperback 0.448379 4.0818 1.32297
thorax -4.60655 1.91585 -1.91248
lowerneck -20.1582 -4.54252 -10.016
upperneck 26.089 -5.67583 8.06325
head 12.5427 -2.53116 3.81627
rclavicle 3.64646e-014 1.27222e-014
rhumerus -30.7176 -9.65438 -78.6604
rradius 36.465
rwrist 7.1002
rhand -12.1721 10.366
rfingers 7.12502
rthumb 13.8911 -19.1501
lclavicle 3.64646e-014 1.27222e-014
lhumerus -38.4462 9.82564 78.917
lradius 34.8548
lwrist -9.4032
lhand -13.4095 25.4335
lfingers 7.12502
lthumb 12.6984 55.0274
rfemur 6.6364 1.9726 29.9096
rtibia 20.3037
rfoot -18.706 1.56827
rtoes 8.3297
lfemur -18.9582 -3.23208 -13.3365
ltibia 1.75968
lfoot -3.82501 4.8496
ltoes -13.8678
203
root -1.4523 17.7922 4.05601 6.35586 -50.9918 -7.33007
lowerback 9.40903 2.61921 4.94581
upperback 0.418038 4.05533 1.34146
thorax -4.59172 1.90253 -1.9019
lowerneck -20.2181 -4.6314 -10.3004
upperneck 26.1226 -5.7982 8.37021
head 12.6034 -2.57389 3.96482
rclavicle -5.4057e-014 -5.36719e-015
rhumerus -30.7255 -9.77457 -78.5938
rradius 36.4113
rwrist 7.24716
rhand -12.1166 10.6005
rfingers 7.12502
rthumb 13.9447 -18.9119
lclavicle -5.4057e-014 -5.36719e-015
lhumerus -38.4844 9.81212 78.9192
lradius 34.7531
lwrist -9.08251
lhand -13.8269 25.4842
lfingers 7.12502
lthumb 12.296 55.1027
rfemur 7.09847 2.30661 30.0041
rtibia 20.2562
rfoot -18.5612 1.21874
rtoes 7.0742
lfemur -19.7466 -3.06892 -13.3295
ltibia 3.62636
lfoot -4.42455 4.03184
ltoes -12.678
204
root -1.55079 17.7805 4.16959 6.16641 -50.9772 -7.18545
lowerback 9.45911 2.60248 4.90524
upperback 0.423933 4.03032 1.30953
thorax -4.61561 1.8902 -1.91215
lowerneck -20.3846 -4.63749 -10.1966
upperneck 26.2455 -5.78988 8.22767
head 12.6771 -2.57517 3.89497
rclavicle -2.56556e-014 -7.45443e-015
rhumerus -30.7544 -9.98926 -78.507
rradius 36.3093
rwrist 7.36888
rhand -12.0465 10.7155
rfingers 7.12502
rthumb 14.0122 -18.7922
lclavicle -2.56556e-014 -7.45443e-015
lhumerus -38.4726 9.8722 78.9083
lradius 34.5909
lwrist -8.76873
lhand -14.3281 25.7321
lfingers 7.12502
lthumb 11.8127 55.3789
rfemur 7.72167 2.66114 29.9504
rtibia 20.2539
rfoot -18.3149 0.860681
rtoes 5.48572
lfemur -20.0349 -2.96025 -13.52
ltibia 4.91531
lfoot -4.83909 2.86761
ltoes -11.9002
205
root -1.65052 17.7681 4.28766 6.02075 -51.0541 -7.18219
lowerback 9.57522 2.64801 4.92211
upperback 0.441138 4.09958 1.32845
thorax -4.65832 1.92286 -1.91641
lowerneck -20.4404 -4.68161 -10.0899
upperneck 26.2378 -5.81191 7.99923
head 12.6762 -2.60168 3.78217
rclavicle 1.07431e-013 1.98785e-016
rhumerus -30.8098 -10.2653 -78.3444
rradius 36.1687
rwrist 7.55565
rhand -12.2202 10.6684
rfingers 7.12502
rthumb 13.8448 -18.8509
lclavicle 1.07431e-013 1.98785e-016
lhumerus -38.4795 10.0881 78.8978
lradius 34.3572
lwrist -8.96505
lhand -14.4538 25.4852
lfingers 7.12502
lthumb 11.6915 55.1389
rfemur 8.40485 2.91879 29.9423
rtibia 20.2757
rfoot -18.0508 0.715773
rtoes 4.70536
lfemur -20.0964 -2.7627 -13.6512
ltibia 6.02918
lfoot -5.23723 1.67036
ltoes -11.0373
206
root -1.75088 17.7585 4.40814 6.09746 -51.1869 -7.39587
lowerback 9.59465 2.72089 5.08744
upperback 0.453992 4.21559 1.35724
thorax -4.63862 1.97722 -1.99312
lowerneck -20.4442 -4.74006 -10.1471
upperneck 26.2402 -5.89135 8.04721
head 12.691 -2.63628 3.7968
rclavicle -2.28354e-014 -4.37326e-015
rhumerus -30.806 -10.5735 -78.2183
rradius 35.9256
rwrist 7.67414
rhand -12.3122 10.5682
rfingers 7.12502
rthumb 13.7561 -18.9571
lclavicle -2.28354e-014 -4.37326e-015
lhumerus -38.4483 10.2313 78.8489
lradius 34.0321
lwrist -9.33468
lhand -14.3593 24.9967
lfingers 7.12502
lthumb 11.7826 54.6453
rfemur 9.01722 3.10562 30.0349
rtibia 20.2994
rfoot -17.7428 0.653332
rtoes 3.91054
lfemur -20.1989 -2.49636 -13.6579
ltibia 7.14539
lfoot -5.23497 0.753601
ltoes -11.7641
207
root -1.85195 17.757 4.5309 6.01526 -51.3418 -7.41021
lowerback 9.61945 2.77637 5.15239
upperback 0.460305 4.29615 1.32821
thorax -4.63344 2.01552 -2.07038
lowerneck -20.3668 -4.76743 -10.2264
upperneck 26.1908 -5.94072 8.15084
head 12.6676 -2.65428 3.84154
rclavicle -1.47821e-013 4.27387e-015
rhumerus -30.8535 -10.9113 -78.135
rradius 35.7158
rwrist 7.78389
rhand -12.2433 10.5257
rfingers 7.12502
rthumb 13.8226 -18.995
lclavicle -1.47821e-013 4.27387e-015
lhumerus -38.4233 10.4349 78.6915
lradius 33.7037
lwrist -9.64641
lhand -14.9209 24.6004
lfingers 7.12502
lthumb 11.241 54.2792
rfemur 9.63159 3.31571 29.9921
rtibia 20.3324
rfoot -17.2736 0.607395
rtoes 2.74659
lfemur -20.3038 -2.2248 -13.7995
ltibia 8.28172
lfoot -4.50142 0.1884
ltoes -13.9784
